<svg viewBox="0 0 11 11" xmlns="http://www.w3.org/2000/svg">
<g clip-path="url(#clip0_33_672)">
<path d="M9.39147 1.61049C7.24675 -0.534227 3.75591 -0.534227 1.61119 1.61049C0.572285 2.64981 0 4.03133 0 5.50062C0 6.96991 0.572285 8.35143 1.61119 9.39034C2.68377 10.4629 4.09256 10.999 5.50132 10.999C6.91009 10.999 8.3189 10.4629 9.39145 9.39034C11.5362 7.24562 11.5362 3.75562 9.39147 1.61049ZM8.78891 8.78778C6.97615 10.6005 4.02649 10.6005 2.21373 8.78778C1.33591 7.90997 0.852251 6.74237 0.852251 5.50062C0.852251 4.25888 1.33591 3.09128 2.21373 2.21303C4.02649 0.400267 6.97615 0.400696 8.78891 2.21303C10.6012 4.02579 10.6012 6.97545 8.78891 8.78778Z"/>
<path d="M7.33754 6.67801L6.13116 5.47335L7.33754 4.26869C7.50372 4.1025 7.50372 3.83276 7.33797 3.66613C7.17136 3.49909 6.90162 3.49952 6.735 3.6657L5.52779 4.87122L4.32057 3.6657C4.15395 3.49952 3.88421 3.49909 3.7176 3.66613C3.55142 3.83274 3.55142 4.10248 3.71803 4.26869L4.92441 5.47335L3.71803 6.67801C3.55142 6.84419 3.55142 7.11393 3.7176 7.28057C3.8007 7.36408 3.91021 7.40541 4.01931 7.40541C4.12841 7.40541 4.23749 7.36365 4.32059 7.28097L5.52781 6.07545L6.73502 7.28097C6.81813 7.36408 6.9272 7.40541 7.0363 7.40541C7.1454 7.40541 7.25491 7.36365 7.33801 7.28057C7.50415 7.11393 7.50415 6.84419 7.33754 6.67801Z"/>
</g>
<defs>
<clipPath id="clip0_33_672">
<rect width="11" height="11" fill="white"/>
</clipPath>
</defs>
</svg>
