<svg width="56" height="56" viewBox="0 0 56 56" fill="none" xmlns="http://www.w3.org/2000/svg">
<path d="M48.9097 7.28248H48.2452C49.5118 5.22047 49.0441 2.45214 47.0114 0.943994C44.8212 -0.680849 41.7088 -0.157828 40.1803 2.12631L36.73 7.28259H7.09032C4.65404 7.28259 2.67198 9.26464 2.67198 11.7009V39.9491C2.67198 42.3854 4.65404 44.3674 7.09032 44.3674H24.2525L22.9557 49.8139H20.157C18.333 49.8139 16.849 51.2977 16.849 53.1217V53.8124H13.3988C12.7948 53.8124 12.3051 54.3022 12.3051 54.9062C12.3051 55.5101 12.7948 55.9999 13.3988 55.9999H42.6013C43.2053 55.9999 43.695 55.5101 43.695 54.9062C43.695 54.3022 43.2053 53.8124 42.6013 53.8124H39.1511V53.1217C39.1511 51.2977 37.6671 49.8139 35.8431 49.8139H33.0444L31.7477 44.3674H48.9098C51.3461 44.3674 53.3281 42.3854 53.3281 39.9491V33.7334V11.7008C53.3281 9.26453 51.3461 7.28248 48.9097 7.28248ZM33.2385 26.5101C31.5285 27.7072 28.3248 26.0801 25.2655 27.7126C24.519 23.8347 24.9896 20.1877 28.8751 19.3827C29.3772 19.2781 29.9179 19.2307 30.3781 19.2399C31.6932 20.2156 33.0234 21.2025 34.3348 22.1756C34.9089 23.8455 34.6934 25.4917 33.2385 26.5101ZM34.3408 14.7867L37.4368 17.0837L35.0559 19.9866C34.0757 19.2594 33.2331 18.6342 32.2529 17.9069C32.4564 17.6027 34.1547 15.0646 34.3408 14.7867ZM41.9984 3.34287C42.8268 2.10466 44.5163 1.81657 45.708 2.70085C46.9002 3.58524 47.1137 5.28555 46.169 6.43736C44.4929 8.48077 40.508 13.3392 38.8255 15.3905L35.5585 12.9666L41.9984 3.34287ZM36.9635 53.1217V53.8124H19.0365V53.1217C19.0365 52.504 19.5391 52.0013 20.157 52.0013H35.843C36.4609 52.0013 36.9635 52.504 36.9635 53.1217ZM30.7957 49.8139H25.2043L26.501 44.3674H29.499L30.7957 49.8139ZM51.1407 39.9491C51.1407 41.1792 50.1399 42.18 48.9098 42.18C47.1736 42.18 9.04251 42.18 7.09043 42.18C5.86031 42.18 4.85955 41.1792 4.85955 39.9491V34.8272H7.98499C8.58905 34.8272 9.07872 34.3374 9.07872 33.7334C9.07872 33.1295 8.58905 32.6397 7.98499 32.6397H4.85933V11.7008C4.85933 10.4707 5.86009 9.46994 7.09021 9.46994H35.2663C34.2185 11.0358 31.1616 15.6041 30.1934 17.051C28.05 17.0704 25.9101 17.8171 24.5093 19.4524C22.603 21.6776 22.2681 25.174 23.5139 29.8445C23.7268 30.6431 24.7233 30.9292 25.3263 30.3533C28.1543 27.651 31.6766 30.5986 34.8308 28.0456C36.7562 26.487 37.2118 24.0093 36.4858 21.6924C37.4672 20.4958 45.527 10.6693 46.5107 9.46994H48.9096C50.1397 9.46994 51.1405 10.4707 51.1405 11.7008V32.6396H16.7346C16.1305 32.6396 15.6409 33.1294 15.6409 33.7333C15.6409 34.3373 16.1305 34.827 16.7346 34.827H51.1407V39.9491Z" fill="white"/>
<path d="M12.1486 32.6608C11.6221 32.7684 11.2692 33.2235 11.2692 33.7339C11.2692 34.418 11.8947 34.9419 12.5763 34.8058C13.1819 34.6828 13.5508 34.0992 13.4349 33.5195C13.3131 32.9212 12.7328 32.5432 12.1486 32.6608Z" fill="white"/>
</svg>
