<svg viewBox="0 0 16 16" fill="none" xmlns="http://www.w3.org/2000/svg">
<g clip-path="url(#clip0_39_64)">
<path fill-rule="evenodd" clip-rule="evenodd" d="M8 0C3.5875 0 0 3.5875 0 8C0 12.4125 3.5875 16 8 16C12.4125 16 16 12.4125 16 8C16 3.5875 12.4125 0 8 0Z" fill="#4BAE4F"/>
<path d="M6.45938 11.6594C5.4375 10.6375 4.42188 9.60624 3.39688 8.58437C3.28437 8.47187 3.28437 8.28437 3.39688 8.17187L4.575 6.99374C4.6875 6.88124 4.875 6.88124 4.9875 6.99374L6.67188 8.67812L11.0031 4.34374C11.1188 4.23124 11.3031 4.23124 11.4188 4.34374L12.6 5.52499C12.7156 5.64062 12.7156 5.82499 12.6 5.93749L6.87188 11.6594C6.75938 11.775 6.575 11.775 6.45938 11.6594Z" fill="white"/>
</g>
<defs>
<clipPath id="clip0_39_64">
<rect width="16" height="16" fill="white"/>
</clipPath>
</defs>
</svg>
