<svg viewBox="0 0 10 10" fill="none" xmlns="http://www.w3.org/2000/svg">
<g clip-path="url(#clip0_402_433)">
<path d="M9.87781 9.28872L7.03409 6.445C7.58493 5.7646 7.91658 4.90001 7.91658 3.95836C7.91658 1.77588 6.14076 6.10352e-05 3.95828 6.10352e-05C1.7758 6.10352e-05 0 1.77586 0 3.95834C0 6.14082 1.77582 7.91664 3.9583 7.91664C4.89995 7.91664 5.76453 7.58499 6.44494 7.03415L9.28866 9.87788C9.36991 9.95912 9.47657 9.99996 9.58325 9.99996C9.68992 9.99996 9.79658 9.95912 9.87783 9.87788C10.0407 9.71497 10.0407 9.45163 9.87781 9.28872ZM3.9583 7.08331C2.23498 7.08331 0.833332 5.68167 0.833332 3.95834C0.833332 2.23502 2.23498 0.833373 3.9583 0.833373C5.68162 0.833373 7.08327 2.23502 7.08327 3.95834C7.08327 5.68167 5.6816 7.08331 3.9583 7.08331Z" fill="#303030"/>
</g>
<defs>
<clipPath id="clip0_402_433">
<rect width="10" height="10" fill="white"/>
</clipPath>
</defs>
</svg>
